<?xml version="1.0" encoding="UTF-8"?>
<svg width="20px" height="20px" viewBox="0 0 20 20" version="1.1" xmlns="http://www.w3.org/2000/svg" xmlns:xlink="http://www.w3.org/1999/xlink">
    <title>4渠道分析</title>
    <defs>
        <linearGradient x1="50%" y1="0%" x2="50%" y2="100%" id="linearGradient-1">
            <stop stop-color="#F5E0C7" offset="0%"></stop>
            <stop stop-color="#E8BE95" offset="100%"></stop>
        </linearGradient>
    </defs>
    <g id="切图" stroke="none" stroke-width="1" fill="none" fill-rule="evenodd">
        <g transform="translate(-206.000000, -469.000000)" id="编组-13">
            <g transform="translate(206.000000, 469.000000)" id="4渠道分析">
                <path d="M3.9045832,2.6984064 L15.9045832,2.6984064 C16.4568679,2.6984064 16.9045832,3.14612165 16.9045832,3.6984064 L16.9045832,16.6984064 C16.9045832,17.2506911 16.4568679,17.6984064 15.9045832,17.6984064 L3.9045832,17.6984064 C3.35229845,17.6984064 2.9045832,17.2506911 2.9045832,16.6984064 L2.9045832,3.6984064 C2.9045832,3.14612165 3.35229845,2.6984064 3.9045832,2.6984064 Z" id="矩形" fill="url(#linearGradient-1)"></path>
                <path d="M10,4.7504456 C11.1045695,4.7504456 12,5.6458761 12,6.7504456 C12,7.68199719 11.3631171,8.46479679 10.5010222,8.68717349 L10.5,9.697 L13,9.69756983 L13,10.6975698 L7,10.6975698 L7.00070296,12.0939888 C7.58293192,12.3001053 8,12.8555406 8,13.5083873 C8,14.3368144 7.32842712,15.0083873 6.5,15.0083873 C5.67157288,15.0083873 5,14.3368144 5,13.5083873 C5,12.8551686 5.41754351,12.2994724 6.00029246,12.0936368 L6,10.1975698 C6,9.92142746 6.22385763,9.69756983 6.5,9.69756983 L7,9.69756983 L9.5,9.697 L9.49998077,8.68743191 C8.63737692,8.46540382 8,7.68235839 8,6.7504456 C8,5.6458761 8.8954305,4.7504456 10,4.7504456 Z M13.5032474,9.69756983 C13.7793897,9.69756983 14.0032474,9.92142746 14.0032474,10.1975698 L14.0040998,12.0982657 C14.5800929,12.3077056 14.9914769,12.8600045 14.9914769,13.5083873 C14.9914769,14.3368144 14.3199041,15.0083873 13.4914769,15.0083873 C12.6630498,15.0083873 11.9914769,14.3368144 11.9914769,13.5083873 C11.9914769,12.8510767 12.414268,12.2925142 13.0027402,12.0898098 L13.0032474,9.69756983 L13.5032474,9.69756983 Z" id="形状结合" fill="#4C9A8C"></path>
            </g>
        </g>
    </g>
</svg>
