<?xml version="1.0" encoding="UTF-8"?>
<svg width="20px" height="20px" viewBox="0 0 20 20" version="1.1" xmlns="http://www.w3.org/2000/svg" xmlns:xlink="http://www.w3.org/1999/xlink">
    <title>2驾驶舱</title>
    <defs>
        <linearGradient x1="50%" y1="0%" x2="50%" y2="100%" id="linearGradient-1">
            <stop stop-color="#F5E0C7" offset="0%"></stop>
            <stop stop-color="#E8BE95" offset="100%"></stop>
        </linearGradient>
    </defs>
    <g id="切图" stroke="none" stroke-width="1" fill="none" fill-rule="evenodd">
        <g transform="translate(-136.000000, -469.000000)" id="编组-11">
            <g transform="translate(136.000000, 469.000000)">
                <g id="编组" transform="translate(2.008923, 2.000000)">
                    <path d="M8,0 C8.41421356,-7.6089797e-17 8.75,0.335786438 8.75,0.75 L8.74961499,1.54134018 C9.9846614,1.68075336 11.1148762,2.16626458 12.0409615,2.89857583 L12.5961941,2.34314575 C12.8890873,2.05025253 13.363961,2.05025253 13.6568542,2.34314575 C13.9497475,2.63603897 13.9497475,3.1109127 13.6568542,3.40380592 L13.1023615,3.95697222 C13.8386638,4.88269436 14.3277382,6.0138526 14.4697134,7.25057549 L15.25,7.25 C15.6642136,7.25 16,7.58578644 16,8 C16,8.41421356 15.6642136,8.75 15.25,8.75 L14.4695979,8.75042951 C14.3274732,9.98676022 13.8384644,11.1175564 13.1023615,12.0430278 L13.6568542,12.5961941 C13.9497475,12.8890873 13.9497475,13.363961 13.6568542,13.6568542 C13.363961,13.9497475 12.8890873,13.9497475 12.5961941,13.6568542 L12.0409615,13.1014242 C11.1148762,13.8337354 9.9846614,14.3192466 8.74961499,14.4586598 L8.75,15.25 C8.75,15.6642136 8.41421356,16 8,16 C7.58578644,16 7.25,15.6642136 7.25,15.25 L7.24926846,14.4556703 C6.01817157,14.3116881 4.89218141,13.8236882 3.97000031,13.090373 L3.40380592,13.6568542 C3.1109127,13.9497475 2.63603897,13.9497475 2.34314575,13.6568542 C2.05025253,13.363961 2.05025253,12.8890873 2.34314575,12.5961941 L2.91141893,12.0290107 C2.18151042,11.1061485 1.69670813,9.9805254 1.55530021,8.75042951 L0.75,8.75 C0.335786438,8.75 0,8.41421356 0,8 C0,7.58578644 0.335786438,7.25 0.75,7.25 L1.55518476,7.25057549 C1.6964441,6.0200877 2.18131165,4.89410282 2.91141893,3.97098933 L2.34314575,3.40380592 C2.05025253,3.1109127 2.05025253,2.63603897 2.34314575,2.34314575 C2.63603897,2.05025253 3.1109127,2.05025253 3.40380592,2.34314575 L3.97000031,2.90962702 C4.89218141,2.17631177 6.01817157,1.6883119 7.24926846,1.54432971 L7.25,0.75 C7.25,0.335786438 7.58578644,7.6089797e-17 8,0 Z" id="形状结合" fill="url(#linearGradient-1)"></path>
                    <circle id="椭圆形" fill="#4C9A8C" cx="8" cy="8" r="4"></circle>
                    <circle id="椭圆形" fill="#F6D5AD" cx="8" cy="8" r="2"></circle>
                </g>
            </g>
        </g>
    </g>
</svg>
