<?xml version="1.0" encoding="UTF-8"?>
<svg width="16px" height="16px" viewBox="0 0 16 16" version="1.1" xmlns="http://www.w3.org/2000/svg" xmlns:xlink="http://www.w3.org/1999/xlink">
    <title>customize</title>
    <g id="营销P0" stroke="none" stroke-width="1" fill="none" fill-rule="evenodd">
        <g id="切图" transform="translate(-483.000000, -129.000000)" fill="#C59461" fill-rule="nonzero">
            <g id="customize" transform="translate(483.000000, 129.000000)">
                <path d="M4,9 C5.65685425,9 7,10.3431458 7,12 C7,13.6568542 5.65685425,15 4,15 C2.34314575,15 1,13.6568542 1,12 C1,10.3431458 2.34314575,9 4,9 Z M12.25,12.8428252 C12.6642136,12.8428252 13,13.1786116 13,13.5928252 C13,14.0070387 12.6642136,14.3428252 12.25,14.3428252 L8.75,14.3428252 C8.33578644,14.3428252 8,14.0070387 8,13.5928252 C8,13.1786116 8.33578644,12.8428252 8.75,12.8428252 L12.25,12.8428252 Z M4,10.5 C3.17157288,10.5 2.5,11.1715729 2.5,12 C2.5,12.8284271 3.17157288,13.5 4,13.5 C4.82842712,13.5 5.5,12.8284271 5.5,12 C5.5,11.1715729 4.82842712,10.5 4,10.5 Z M14.25,9.84282516 C14.6642136,9.84282516 15,10.1786116 15,10.5928252 C15,11.0070387 14.6642136,11.3428252 14.25,11.3428252 L8.75,11.3428252 C8.33578644,11.3428252 8,11.0070387 8,10.5928252 C8,10.1786116 8.33578644,9.84282516 8.75,9.84282516 L14.25,9.84282516 Z M4,2 C5.65685425,2 7,3.34314575 7,5 C7,6.65685425 5.65685425,8 4,8 C2.34314575,8 1,6.65685425 1,5 C1,3.34314575 2.34314575,2 4,2 Z M12.25,5.84282516 C12.6642136,5.84282516 13,6.1786116 13,6.59282516 C13,7.00703872 12.6642136,7.34282516 12.25,7.34282516 L8.75,7.34282516 C8.33578644,7.34282516 8,7.00703872 8,6.59282516 C8,6.1786116 8.33578644,5.84282516 8.75,5.84282516 L12.25,5.84282516 Z M4,3.5 C3.17157288,3.5 2.5,4.17157288 2.5,5 C2.5,5.82842712 3.17157288,6.5 4,6.5 C4.82842712,6.5 5.5,5.82842712 5.5,5 C5.5,4.17157288 4.82842712,3.5 4,3.5 Z M14.25,2.84282516 C14.6642136,2.84282516 15,3.1786116 15,3.59282516 C15,4.00703872 14.6642136,4.34282516 14.25,4.34282516 L8.75,4.34282516 C8.33578644,4.34282516 8,4.00703872 8,3.59282516 C8,3.1786116 8.33578644,2.84282516 8.75,2.84282516 L14.25,2.84282516 Z" id="形状结合"></path>
            </g>
        </g>
    </g>
</svg>