<?xml version="1.0" encoding="UTF-8"?>
<svg width="20px" height="20px" viewBox="0 0 20 20" version="1.1" xmlns="http://www.w3.org/2000/svg" xmlns:xlink="http://www.w3.org/1999/xlink">
    <title>1首页</title>
    <defs>
        <linearGradient x1="50%" y1="0%" x2="50%" y2="100%" id="linearGradient-1">
            <stop stop-color="#F5E0C7" offset="0%"></stop>
            <stop stop-color="#E8BE95" offset="100%"></stop>
        </linearGradient>
    </defs>
    <g id="切图" stroke="none" stroke-width="1" fill="none" fill-rule="evenodd">
        <g transform="translate(-105.000000, -469.000000)" id="编组-9">
            <g transform="translate(105.000000, 469.000000)" id="1首页">
                <path d="M3.37366279,6.37645187 L9.50547627,2.07415814 C9.85603472,1.82819413 10.3242975,1.8327475 10.6700066,2.085482 L16.5381931,6.37548495 C16.7957674,6.56378748 16.9480229,6.86369902 16.9480229,7.18276381 L16.9480229,16.6627753 C16.9480229,17.21506 16.5003077,17.6627753 15.9480229,17.6627753 L3.94802294,17.6627753 C3.39573819,17.6627753 2.94802294,17.21506 2.94802294,16.6627753 L2.94802294,7.19505459 C2.94802294,6.8691281 3.10685848,6.56365106 3.37366279,6.37645187 Z" id="矩形" fill="url(#linearGradient-1)"></path>
                <path d="M9.96584472,11.3147396 C10.3800583,11.3147396 10.7158447,11.6505261 10.7158447,12.0647396 L10.7150229,16.3377396 L16.9480229,16.3384282 L16.9480229,16.6627753 C16.9480229,17.21506 16.5003077,17.6627753 15.9480229,17.6627753 L3.94802294,17.6627753 C3.39573819,17.6627753 2.94802294,17.21506 2.94802294,16.6627753 L2.94802294,16.3384282 L9.21502294,16.3377396 L9.21584472,12.0647396 C9.21584472,11.6505261 9.55163115,11.3147396 9.96584472,11.3147396 Z M6.00806803,7.33582308 C6.56057747,7.33582308 7.00847487,7.7799059 7.00847487,8.32770983 C7.00847487,8.87551375 6.56057747,9.31959658 6.00806803,9.31959658 C5.45555858,9.31959658 5.00766118,8.87551375 5.00766118,8.32770983 C5.00766118,7.7799059 5.45555858,7.33582308 6.00806803,7.33582308 Z" id="形状结合" fill="#4B9B8C"></path>
            </g>
        </g>
    </g>
</svg>
