<?xml version="1.0" encoding="UTF-8"?>
<svg width="58px" height="58px" viewBox="0 0 58 58" version="1.1" xmlns="http://www.w3.org/2000/svg" xmlns:xlink="http://www.w3.org/1999/xlink">
    <title>编组 8</title>
    <defs>
        <radialGradient cx="115.955604%" cy="10.0604624%" fx="115.955604%" fy="10.0604624%" r="120.411558%" gradientTransform="translate(1.159556,0.100605),scale(0.669333,1.000000),translate(-1.159556,-0.100605)" id="radialGradient-1">
            <stop stop-color="#A8836A" offset="0%"></stop>
            <stop stop-color="#9A6C4F" offset="14.7903346%"></stop>
            <stop stop-color="#AB8064" offset="38.0027931%"></stop>
            <stop stop-color="#B98B6C" offset="61.7025309%"></stop>
            <stop stop-color="#CFA386" offset="100%"></stop>
        </radialGradient>
    </defs>
    <g id="页面布局（删格/框架/卡片）" stroke="none" stroke-width="1" fill="none" fill-rule="evenodd">
        <g id="框架布局" transform="translate(-307.000000, -287.000000)" fill-rule="nonzero">
            <g id="编组-9" transform="translate(307.000000, 287.000000)">
                <g id="编组-8" transform="translate(0.000000, 18.000000)">
                    <path d="M16.0155873,14.3425466 C15.0411875,13.9686692 13.9304748,14.1840064 13.1805067,14.892192 C12.3676163,15.620476 11.2965061,16.0191681 10.1883372,16.0059472 C7.57018885,16.0059472 5.45322893,13.6699542 5.45322893,10.5384217 C5.45322893,7.40688929 7.57018885,4.87562749 10.1883372,4.87562749 C11.1784295,4.8856516 12.1317029,5.23993018 12.8738093,5.87366786 C13.6418642,6.49874945 14.7138887,6.63957118 15.6266053,6.23527668 L18.5664118,4.9334849 C16.9432604,1.85973572 13.6527987,-0.0535110439 10.0836112,0.00114048819 C4.14415477,0.00114048819 0,4.34044643 0,10.5601183 C0,16.7797901 4.14415477,21.119096 10.0836112,21.119096 C13.9223177,21.1720634 17.3835061,18.8929764 18.7384615,15.4201409 L16.0155873,14.3425466 Z" id="路径" fill="#E6B595"></path>
                    <path d="M55.2771257,14.3425466 C54.302726,13.9686692 53.1920133,14.1840064 52.4420451,14.892192 C51.6291548,15.620476 50.5580446,16.0191681 49.4498756,16.0059472 C46.8317273,16.0059472 44.7147674,13.6699542 44.7147674,10.5384217 C44.7147674,7.40688929 46.8317273,4.87562749 49.4498756,4.87562749 C50.439968,4.8856516 51.3932413,5.23993018 52.1353478,5.87366786 C52.9034027,6.49874945 53.9754271,6.63957118 54.8881437,6.23527668 L57.8279503,4.9334849 C56.2047989,1.85973572 52.9143371,-0.0535110439 49.3451497,0.00114048819 C43.4056932,0.00114048819 39.2615385,4.34044643 39.2615385,10.5601183 C39.2615385,16.7797901 43.4056932,21.119096 49.3451497,21.119096 C53.1838562,21.1720634 56.6450446,18.8929764 58,15.4201409 L55.2771257,14.3425466 Z" id="路径" fill="#E6B595"></path>
                    <g id="编组-7" transform="translate(19.630769, 0.000000)">
                        <path d="M13.2948966,9.58691726 C11.9094768,9.01494668 10.4771263,8.57491926 9.01542345,8.27223515 C8.61342847,8.18692622 8.21587225,8.08032579 7.82430342,7.9528491 C6.5047992,7.36607008 6.36215009,6.60845666 6.36215009,6.31135335 C6.36128694,5.93903344 6.51465532,5.58441318 6.78296495,5.33834004 C7.33652951,4.88161909 8.04417384,4.67795974 8.74439015,4.77384376 C9.71016484,4.84230574 10.6218574,5.26309981 11.3192065,5.96225697 C12.0390787,6.65322578 13.0838016,6.83406491 13.9796123,6.42276709 L16.497369,5.29377454 C15.1992545,2.10579607 12.2050039,0.0270314622 8.8799068,0.00533575601 C7.43621348,-0.0430685555 5.99985455,0.238343291 4.6717582,0.829797421 C2.4671351,1.87268454 1.01363451,4.11873641 0.912954273,6.63816699 C0.875274921,8.9838619 2.20659817,11.1192871 4.27947316,12.0380195 C5.24234192,12.4280916 6.23482933,12.7336859 7.24657454,12.9516122 C8.09892808,13.1482262 8.93959598,13.3962299 9.76433125,13.6943704 C11.1123653,14.2440115 11.2978091,14.8976388 11.2978091,15.4621351 C11.2978091,16.531707 10.1566163,17.2744652 8.44482703,17.2744652 C7.25518998,17.2215127 6.13754573,16.6663853 5.34934145,15.7369556 C4.62571837,14.9527533 3.50812342,14.7241421 2.55341898,15.1650318 L1.26697857e-15,16.3385898 C1.45344966,19.8330291 4.7885985,22.0682833 8.44482703,21.9984077 C13.6515194,21.9984077 16.9538462,19.50274 16.9538462,15.1798869 C16.9192742,12.7209 15.479693,10.5203957 13.2948966,9.58691726 Z" id="路径" fill="#E6B595"></path>
                        <path d="M12.5745353,17.2224721 C12.5745353,15.499273 11.56171,13.9840461 9.2151322,13.5086809 C9.3577813,13.5606739 9.6288146,13.6498049 9.75006634,13.701798 C9.99889263,13.7979988 10.237835,13.9199252 10.4633119,14.0657496 C10.9808438,14.323846 11.3067393,14.8720758 11.2978091,15.4695627 C11.2978091,16.531707 10.1566163,17.2744652 8.44482703,17.2744652 L8.44482703,17.2744652 C7.25518998,17.2215127 6.13754573,16.6663853 5.34934145,15.7369556 C4.62571837,14.9527533 3.50812342,14.7241421 2.55341898,15.1650318 L1.20362964e-13,16.3385898 C1.17517291,19.064843 3.50865172,21.0605494 6.30509045,21.7310148 L6.30509045,21.7310148 C10.2992654,22.6594626 12.5816511,20.1118018 12.5745353,17.2224721 Z" id="路径" fill="url(#radialGradient-1)"></path>
                    </g>
                </g>
            </g>
        </g>
    </g>
</svg>