<?xml version="1.0" encoding="UTF-8"?>
<svg width="20px" height="20px" viewBox="0 0 20 20" version="1.1" xmlns="http://www.w3.org/2000/svg" xmlns:xlink="http://www.w3.org/1999/xlink">
    <title>3产品操盘</title>
    <defs>
        <linearGradient x1="50%" y1="0%" x2="50%" y2="100%" id="linearGradient-1">
            <stop stop-color="#F5E0C7" offset="0%"></stop>
            <stop stop-color="#E8BE95" offset="100%"></stop>
        </linearGradient>
    </defs>
    <g id="切图" stroke="none" stroke-width="1" fill="none" fill-rule="evenodd">
        <g transform="translate(-168.000000, -469.000000)" id="编组-12">
            <g transform="translate(168.000000, 469.000000)" id="3产品操盘">
                <path d="M8.53333333,10.5022006 C9.08561808,10.5022006 9.53333333,10.9499158 9.53333333,11.5022006 L9.53333333,16.0355339 C9.53333333,16.5878187 9.08561808,17.0355339 8.53333333,17.0355339 L4,17.0355339 C3.44771525,17.0355339 3,16.5878187 3,16.0355339 L3,11.5022006 C3,10.9499158 3.44771525,10.5022006 4,10.5022006 L8.53333333,10.5022006 Z M16,10.5022006 C16.5522847,10.5022006 17,10.9499158 17,11.5022006 L17,16.0355339 C17,16.5878187 16.5522847,17.0355339 16,17.0355339 L11.4666667,17.0355339 C10.9143819,17.0355339 10.4666667,16.5878187 10.4666667,16.0355339 L10.4666667,11.5022006 C10.4666667,10.9499158 10.9143819,10.5022006 11.4666667,10.5022006 L16,10.5022006 Z M8.53333333,3.03553391 C9.08561808,3.03553391 9.53333333,3.48324916 9.53333333,4.03553391 L9.53333333,8.56886724 C9.53333333,9.12115199 9.08561808,9.56886724 8.53333333,9.56886724 L4,9.56886724 C3.44771525,9.56886724 3,9.12115199 3,8.56886724 L3,4.03553391 C3,3.48324916 3.44771525,3.03553391 4,3.03553391 L8.53333333,3.03553391 Z" id="形状结合" fill="url(#linearGradient-1)"></path>
                <path d="M12.1088828,2.82842712 L16.1088828,2.82842712 C16.6611675,2.82842712 17.1088828,3.27614237 17.1088828,3.82842712 L17.1088828,7.82842712 C17.1088828,8.38071187 16.6611675,8.82842712 16.1088828,8.82842712 L12.1088828,8.82842712 C11.556598,8.82842712 11.1088828,8.38071187 11.1088828,7.82842712 L11.1088828,3.82842712 C11.1088828,3.27614237 11.556598,2.82842712 12.1088828,2.82842712 Z" id="矩形备份-8" fill="#4C9A8C" transform="translate(14.108883, 5.828427) rotate(-315.000000) translate(-14.108883, -5.828427) "></path>
            </g>
        </g>
    </g>
</svg>
