<?xml version="1.0" encoding="UTF-8"?>
<svg width="20px" height="20px" viewBox="0 0 20 20" version="1.1" xmlns="http://www.w3.org/2000/svg" xmlns:xlink="http://www.w3.org/1999/xlink">
    <title>5自助分析</title>
    <defs>
        <linearGradient x1="50%" y1="0%" x2="50%" y2="100%" id="linearGradient-1">
            <stop stop-color="#F5E0C7" offset="0%"></stop>
            <stop stop-color="#E8BE95" offset="100%"></stop>
        </linearGradient>
        <path d="M1,0 L13,0 C13.5522847,-1.08250786e-15 14,0.44771525 14,1 L14,14 C14,14.5522847 13.5522847,15 13,15 L1,15 C0.44771525,15 6.76353751e-17,14.5522847 0,14 L0,1 C-6.76353751e-17,0.44771525 0.44771525,1.01453063e-16 1,0 Z" id="path-2"></path>
    </defs>
    <g id="切图" stroke="none" stroke-width="1" fill="none" fill-rule="evenodd">
        <g transform="translate(-238.000000, -469.000000)" id="编组-16">
            <g transform="translate(238.000000, 469.000000)">
                <g id="2" transform="translate(3.000000, 2.698406)">
                    <mask id="mask-3" fill="white">
                        <use xlink:href="#path-2"></use>
                    </mask>
                    <use id="蒙版" fill="url(#linearGradient-1)" xlink:href="#path-2"></use>
                    <path d="M12.0845496,3.01659143 L12.0845496,5.98278988 C12.0845496,6.03801835 12.039778,6.08278988 11.9845496,6.08278988 C11.9585389,6.08278988 11.9335517,6.07265519 11.91489,6.05453627 L10.9698524,5.13659143 L8.05281363,7.85075556 C7.80047486,8.02202151 7.47313833,8.11280822 7.22310221,7.86014444 L5.5817565,6.0099748 C4.05039791,7.17036231 3.20038573,7.7839559 3.03171996,7.85075556 C2.7787213,7.95095504 2.29288534,7.76337059 2.21471492,7.37460994 C2.16260131,7.11543617 2.2980021,6.85340285 2.6209173,6.58850997 L5.15569805,4.58151196 C5.40698339,4.4204146 5.69822747,4.33208194 5.97096415,4.58423036 L7.70055888,6.53919154 L10.0978524,4.28959143 L8.96282724,3.18833783 C8.9232028,3.14986591 8.9222685,3.08655631 8.96074041,3.04693187 C8.97957174,3.0275364 9.00545343,3.01659143 9.03248681,3.01659143 L12.0845496,3.01659143 Z" id="路径-4" fill="#4C9A8C" fill-rule="nonzero" mask="url(#mask-3)"></path>
                    <rect id="矩形" fill="#4C9A8C" mask="url(#mask-3)" x="2" y="9.80069428" width="1.2" height="2.19930572" rx="0.6"></rect>
                    <path d="M5.6,9 C5.93137085,9 6.2,9.26862915 6.2,9.6 L6.2,11.4 C6.2,11.7313708 5.93137085,12 5.6,12 C5.26862915,12 5,11.7313708 5,11.4 L5,9.6 C5,9.26862915 5.26862915,9 5.6,9 Z" id="矩形备份-9" fill="#4C9A8C" mask="url(#mask-3)"></path>
                    <path d="M8.59049694,10.0206249 C8.92186779,10.0206249 9.19049694,10.289254 9.19049694,10.6206249 L9.19049694,11.4 C9.19049694,11.7313708 8.92186779,12 8.59049694,12 C8.25912609,12 7.99049694,11.7313708 7.99049694,11.4 L7.99049694,10.6206249 C7.99049694,10.289254 8.25912609,10.0206249 8.59049694,10.0206249 Z" id="矩形备份-10" fill="#4C9A8C" mask="url(#mask-3)"></path>
                    <path d="M11.4845496,9.36083314 C11.8159204,9.36083314 12.0845496,9.62946229 12.0845496,9.96083314 L12.0845496,11.4 C12.0845496,11.7313708 11.8159204,12 11.4845496,12 C11.1531787,12 10.8845496,11.7313708 10.8845496,11.4 L10.8845496,9.96083314 C10.8845496,9.62946229 11.1531787,9.36083314 11.4845496,9.36083314 Z" id="矩形备份-11" fill="#4C9A8C" mask="url(#mask-3)"></path>
                </g>
            </g>
        </g>
    </g>
</svg>
